<svg xmlns="http://www.w3.org/2000/svg" viewBox="0 0 79.01 24.24"><defs><style>.cls-1{isolation:isolate;}.cls-2{fill:#fff;}.cls-2,.cls-3,.cls-4,.cls-5{mix-blend-mode:multiply;}.cls-3{fill:#fff;}.cls-4{fill:#fff;}.cls-5{fill:#fff;}.cls-6{fill:#fff;}</style></defs><title>logo</title><g class="cls-1"><g id="图层_2" data-name="图层 2"><g id="图层_1-2" data-name="图层 1"><path class="cls-2" d="M1.32,15c.18,5.24,5.11,9.32,11,9.12s10.55-4.62,10.37-9.86-5.11-9.32-11-9.12S1.14,9.74,1.32,15Zm20.86-1.39c.16,4.73-4.27,8.71-9.89,8.91S2,19,1.8,14.3s4.27-8.71,9.9-8.91S22,8.87,22.18,13.59Z"/><path class="cls-3" d="M.84,9.71c.29,4.78,5.43,8.35,11.48,8s10.73-4.54,10.44-9.32S17.33,0,11.28.4.55,4.93.84,9.71ZM22.2,7.81c.27,4.3-4.2,8.08-10,8.43S1.58,13.38,1.32,9.07,5.53,1,11.29.64,21.94,3.5,22.2,7.81Z"/><path class="cls-4" d="M4.42,21.11c4.1,2.24,9.91-.48,13-6.1S19.65,3,15.55.79s-9.91.48-13,6.09S.32,18.86,4.42,21.11ZM14.77,1c3.69,2,4.31,8,1.39,13.35s-8.3,8-12,6S-.16,12.34,2.77,7,11.07-1,14.77,1Z"/><path class="cls-5" d="M0,13.42c.29,4.81,5.86,8.38,12.43,8S24.11,16.78,23.82,12,18,3.61,11.39,4-.28,8.62,0,13.42Zm23.21-2c.26,4.32-4.6,8.14-10.87,8.52S.8,17.11.54,12.78,5.14,4.63,11.4,4.25,23,7.08,23.22,11.41Z"/><path class="cls-6" d="M34.7,1.53l.7,0,0,1.73V5.05h1.39l1.43,0v.33l0,.33H35.43v.7a8.73,8.73,0,0,1,0,.9,2.22,2.22,0,0,1-.17.46,1.26,1.26,0,0,1-.26.4,1.07,1.07,0,0,1-.34.23,1,1,0,0,1-.43.1H34V5.74H31V5.05H34V1.53ZM33,8.8l.7,0V9.2a1.48,1.48,0,0,0,0,.53l0,.1H35.2v-1h1.43v1h1.59v.63H36.63V11a5.24,5.24,0,0,1-.07.86,4.86,4.86,0,0,1-.17.66,2.79,2.79,0,0,1-.3.64,5.39,5.39,0,0,1-.36.63,5,5,0,0,1-.37.46l-.2.23.24.24a6.06,6.06,0,0,0,.59.46,4.66,4.66,0,0,0,.77.53c.29.18.43.31.45.38s0,.13,0,.15-.14,0-.37-.06-.39-.1-.59-.17l-.7-.3a6.86,6.86,0,0,1-.76-.43L34.43,15l-.23.16c-.18.11-.36.23-.56.34l-.7.29a6,6,0,0,1-.86.25l-.63.15-.14,0v-.17a.21.21,0,0,1,0-.15.89.89,0,0,1,.26-.15l.67-.36c.19-.14.42-.28.66-.44l.53-.39c.13-.14.2-.21.2-.24s0-.08-.17-.26-.22-.28-.33-.43-.22-.38-.33-.6-.21-.49-.3-.73a5.36,5.36,0,0,1-.2-.7,4.49,4.49,0,0,1-.06-.73v-.43H31V9.83h1.33v-.5a1.83,1.83,0,0,1,0-.5A3.66,3.66,0,0,1,33,8.8Zm-.27-6.54h.63l0,.93a4.56,4.56,0,0,1-.07,1.13,2.19,2.19,0,0,1-.23.33.83.83,0,0,1-.35.25,1.18,1.18,0,0,1-.38.08l-.2,0V2.26Zm0,3.65h.6v.83a3.26,3.26,0,0,1-.07,1,1.1,1.1,0,0,1-.16.34.83.83,0,0,1-.33.29.94.94,0,0,1-.43.1h-.24V5.94A2.86,2.86,0,0,1,32.77,5.91Zm1.7,4.55h-.7v.8c0,.51,0,.85,0,1l.19.48a3.65,3.65,0,0,0,.24.51c.11.18.18.27.2.27s.1-.07.24-.27a2.8,2.8,0,0,0,.3-.6,1.75,1.75,0,0,0,.16-.49,4.45,4.45,0,0,0,.07-1v-.73Zm2.19-8.2h.63v.66a6.05,6.05,0,0,1,0,.92,1.8,1.8,0,0,1-.13.41.81.81,0,0,1-.24.28,1.09,1.09,0,0,1-.31.18,1.53,1.53,0,0,1-.33,0h-.17l0-1.26V2.26Zm0,3.65h.6v.83a4.77,4.77,0,0,1-.1,1A1.38,1.38,0,0,1,37,8a.51.51,0,0,1-.16.19l-.23.14a1,1,0,0,1-.37.06H36V7.21a10.91,10.91,0,0,1,0-1.27A2.79,2.79,0,0,1,36.69,5.91Zm3.72-4h.73V2c0,.09,0,.22-.07.4s0,.48-.1.76-.14.64-.23,1l-.06.26-.1.3.43.07h1.72l2.13,0,0,.3v.33h-.63c-.42,0-.63,0-.65.07s0,.19,0,.43-.08.59-.13.9-.13.63-.2,1-.19.67-.3,1-.21.67-.36,1.09l-.43.93-.2.4.3.53c.24.38.46.73.66,1.07s.52.73.83,1.13c.11.15.24.33.4.53s.29.36.4.49c.28.31.53.57.73.77l.36.36H43.56l-.19-.23a2.49,2.49,0,0,1-.47-.53,8.51,8.51,0,0,1-.53-.8l-.7-1.33-.4-.83-.2.27a5.39,5.39,0,0,1-.46.63c-.2.25-.44.52-.73.83s-.57.54-.83.77a8.32,8.32,0,0,1-.68.53l-.52.33-.16.1-.17-.1-.13-.13.3-.24.53-.53c.13-.15.3-.35.5-.6l.48-.64a6.64,6.64,0,0,0,.48-.75,8.5,8.5,0,0,0,.45-.76q.21-.43.36-.78a1.78,1.78,0,0,0,.15-.45s-.14-.41-.36-1.1S39.87,8.53,39.71,8s-.24-.78-.26-.83-.08,0-.17.17-.2.29-.4.6-.27.36-.3.36-.07-.07-.16-.2l-.17-.2.2-.53c.11-.29.24-.68.4-1.19a12.3,12.3,0,0,0,.37-1.3c.11-.42.19-.83.26-1.23a10.32,10.32,0,0,0,.17-1q.06-.5.06-.63V1.86Zm.83,3.55h-.93l-.1.17a4,4,0,0,1-.26.63l-.2.4.06.2c.09.22.2.49.33.83.23.51.44,1,.64,1.36l.36.66a2.36,2.36,0,0,0,.17-.46c.06-.22.16-.54.3-1s.17-.68.26-1.06.13-.72.2-1.09.1-.59.1-.63A3.85,3.85,0,0,0,41.24,5.41Z"/><path class="cls-6" d="M49.71,2.49h1.36v.63H48.38V2.49Zm0,5h1.36v.67H48.38V7.5Zm.06,4.15h.7v1.66a12.16,12.16,0,0,1-.07,1.88,1.5,1.5,0,0,1-.13.38,1,1,0,0,1-.2.28,1.49,1.49,0,0,1-.33.27.88.88,0,0,1-.46.12H49V14c0-1.51,0-2.27,0-2.29A3.14,3.14,0,0,1,49.77,11.65ZM59,1.56h.6l-.07.23c-.06.18-.11.3-.13.37a2.71,2.71,0,0,0,.4.86c.31.53.53.9.66,1.1s.38.41.73.76a6.31,6.31,0,0,0,.73.7c.18.13.25.23.2.3A.19.19,0,0,1,62,6a1.51,1.51,0,0,1-.37-.14,6.31,6.31,0,0,1-.66-.29l-.53-.37-.47-.33c-.15-.16-.29-.3-.43-.43s-.26-.38-.4-.6l-.2-.37-.16.3a3.91,3.91,0,0,1-.43.7c-.2.24-.43.52-.7.83s-.54.56-.83.83-.48.43-.56.43h-.14V7.6a5.36,5.36,0,0,0,0,1s.08,0,.17,0a.94.94,0,0,1,.3.13,2.54,2.54,0,0,1,.36.28,1.34,1.34,0,0,1,.33.42c.11.15.21.31.3.46s.12.23.1.23-.14.05-.43.07l-.4,0,0-.16c0-.09-.07-.22-.13-.4a3.25,3.25,0,0,0-.2-.5.92.92,0,0,0-.27-.36l-.1-.14,0,.57a2.46,2.46,0,0,1-.08.74,1.21,1.21,0,0,1-.22.37,1.2,1.2,0,0,1-.33.25.85.85,0,0,1-.4.1l-.23,0v-.17l0-.17h-.29v1.6h1.42l0,.26v.3H54.49l0,1.4a8.17,8.17,0,0,1-.07,1.52,1.46,1.46,0,0,1-.17.3.87.87,0,0,1-.23.27.86.86,0,0,1-.25.13,1.3,1.3,0,0,1-.31,0h-.2V12.45h-1.4v-.56h1.4v-1.6H52.8v.37h-.2a.59.59,0,0,1-.34-.07.74.74,0,0,1-.29-.18.87.87,0,0,1-.24-.32,1.58,1.58,0,0,1-.13-.36c0-.16,0-.92,0-2.29V5.35H52.8l0,.16v.17H53l.2,0V4H51.67V3.45h1.56V1.59h1.23V3.45l.79,0h.8V4H54.46v.46a2.89,2.89,0,0,1-.07.68,1.08,1.08,0,0,1-.15.35.27.27,0,0,0-.08.15s.1,0,.3,0h.29l0-.16V5.38h.63l.63,0,0,.49v.47l.17-.23a4.73,4.73,0,0,0,.43-.63c.15-.25.33-.56.53-.93s.32-.71.43-1L58,2.36c.16-.47.24-.72.27-.77A3,3,0,0,1,59,1.56ZM53.82,6.24c-.64,0-1,0-1,0a3.71,3.71,0,0,0,0,.75V7.7h2V6.24Zm0,2a6.59,6.59,0,0,0-1,0,3.74,3.74,0,0,0,0,.73v.7h2V8.27Zm4.59-1.63h.53v4.05c0,2.7,0,4.11-.07,4.22a1.69,1.69,0,0,1-.13.4,2,2,0,0,1-.3.4,1.85,1.85,0,0,1-.35.28.6.6,0,0,1-.2.08,19.5,19.5,0,0,1,0-2.22V12.72c0-.36,0-.72,0-1.1a1.15,1.15,0,0,0-.13.3l-.37.8a3.15,3.15,0,0,1-.33.53,1.93,1.93,0,0,1-.55-.08l-.53-.12s0,0,0,0a2,2,0,0,1,.3-.4c.29-.36.52-.66.7-.9s.46-.62.66-.93l.3-.43V7.44H56.41V6.81h.7c.49,0,.73,0,.73-.09S58,6.64,58.41,6.64Zm2.89,0,.53,0,0,4c0,2.65,0,4.06-.07,4.22a1.33,1.33,0,0,1-.13.43,1.25,1.25,0,0,1-.3.36,2.11,2.11,0,0,1-.3.3,1,1,0,0,1-.23.07l-.07,0v-4l-.23.43a2.34,2.34,0,0,1-.3.5c0,.07-.43,0-1.16-.16a.83.83,0,0,1,.12-.17l.11-.17c.14-.15.34-.39.6-.73s.42-.56.6-.83a1,1,0,0,0,.26-.56v-.23l-.39,0a1.5,1.5,0,0,0-.44,0s0-.11-.1-.33a3.08,3.08,0,0,0-.23-.63,1.08,1.08,0,0,0-.26-.43c-.12-.11-.16-.18-.14-.22s.07,0,.15,0a.77.77,0,0,1,.32.17L60,9a3.77,3.77,0,0,1,.3.34,2.13,2.13,0,0,1,.3.5l.16.26,0-1.29V7.47l-.73,0h-.73V6.81H60c.49,0,.73,0,.73-.09S60.94,6.64,61.3,6.64Z"/><path class="cls-6" d="M31.43,20.05h.2v.47H32v.18h-.35v.06a.74.74,0,0,1,0,.12.33.33,0,0,1-.05.12.22.22,0,0,1-.07.09l-.07.06-.05,0h.27l.23-.25.31-.37.09-.1h.26a.93.93,0,0,1,.25,0l-.31.36-.31.34h.43v.16l.09-.19c.05-.12.09-.22.13-.3s.07-.22.12-.41l.08-.29h.39s0,.11-.09.31-.09.3-.1.32a.1.1,0,0,0,0,0h1.23V21H34l0,.34c0,.21-.07.37-.08.48s0,.18,0,.25a1.12,1.12,0,0,1-.06.23l-.08.21a.3.3,0,0,0,0,.1l.09.12.17.19a2.33,2.33,0,0,0,.3.27,1.9,1.9,0,0,1,.22.18s0,.1,0,.28,0,.3,0,.32,0,0-.14-.11l-.1-.08-.39-.38a3.4,3.4,0,0,1-.24-.28L33.44,23l-.07.06,0,.07a2.37,2.37,0,0,1-.25.29,2.94,2.94,0,0,1-.26.25,1.8,1.8,0,0,1-.25.18L32.3,24a.45.45,0,0,1-.19.06s-.06,0-.06,0,0,0,.12-.11a2.18,2.18,0,0,0,.31-.27,3.56,3.56,0,0,0,.28-.31,2,2,0,0,0,.19-.26l.14-.21a.88.88,0,0,0,.09-.2l0-.09-.08-.19L33,22.06a4,4,0,0,1-.12-.43l-.06-.24,0,0-.06.06a.64.64,0,0,1-.13.12.16.16,0,0,1-.1,0h0a1.19,1.19,0,0,1,.06-.14l.06-.12H32l0,0-.13.17-.11.13h.65v.17l-.25.3-.25.29v.13c0,.08,0,.12,0,.12l.34-.07a1.37,1.37,0,0,1,.34-.06s0,0,0,.08v.09l-.28.06-.36.08h0v.73l0,.06-.07.11-.12.09a.6.6,0,0,1-.15.09l-.21.06a1,1,0,0,1-.21.05c-.05,0-.08,0-.08,0s0,0,.08-.06l.14-.09a.47.47,0,0,0,.1-.1l.08-.13a1.31,1.31,0,0,0,0-.37V23h0l-.36.07-.35.07a.31.31,0,0,1,0-.09V23L31,22.9l.18,0,.19,0v-.35l.18-.22.25-.29.06-.08h-.37l-.05.06a.52.52,0,0,1-.11.1l-.32.18-.28.17-.29.17-.32.19h0v0a.06.06,0,0,1,0-.05l.12-.12.37-.32.36-.34a2.42,2.42,0,0,0,.31-.33l.16-.18h-1v-.18h.78V20.7h-.56v-.18h.56v-.47Zm2.15,1h-.24c-.15,0-.24,0-.25,0l-.05.07,0,.05-.07.11,0,.07.11.24q.09.18.15.33l.13.22,0,.07,0-.1a1.93,1.93,0,0,1,0-.2c0-.06,0-.22.07-.48a2.81,2.81,0,0,0,0-.4Z"/><path class="cls-6" d="M37.29,20.5h1.94v.17H36.81l-.07.11c0,.07-.1.18-.19.32l-.11.22h.93a9.29,9.29,0,0,0,.93,0,.51.51,0,0,0,0-.09.84.84,0,0,0-.09-.22.67.67,0,0,1-.06-.16v0l0,0a.6.6,0,0,1,.15.09l.14.14a.76.76,0,0,1,.08.13l.07.11a.74.74,0,0,1,.09.18l.05.13v0l-.37.05v1.91a.5.5,0,0,1,0,.15l0,.12-.07.11-.1.08a.19.19,0,0,1-.09.05l-.06,0v-1H36.47v.28a2.34,2.34,0,0,1,0,.36.35.35,0,0,1-.06.14.52.52,0,0,1-.1.11l-.1.06-.07,0s0-.41,0-1.21V21.71h.37v.12H38v-.12h.3v-.06a.25.25,0,0,0,0-.1v0H35.9v-.17H36l.19-.33.19-.32h-1V20.5Zm0,1.53h-.79v.38H38V22Zm0,.57h-.79V23H38V22.6Zm.18-2.6h.21v0l0,.09a.23.23,0,0,1,0,.11.27.27,0,0,1-.06.1l-.09.07a.29.29,0,0,1-.14,0h-.06V20Z"/><path class="cls-6" d="M41.74,22.66H43.1v.18H40.37v-.18ZM41.42,20h.2v.71h2.56v.18H41.62v.36a2.21,2.21,0,0,1,0,.37l.16,0h1.62v-.06h.41v1a8.72,8.72,0,0,1,0,1.11.37.37,0,0,1-.05.11l-.08.09-.1.07-.1,0,0,0V21.87h-1.9l0,0-.12.08-.09,0h0V20Z"/><path class="cls-6" d="M45.47,21H46v.09h2.62V21h.52s0,0,0,0a1,1,0,0,1,0,.2,1.87,1.87,0,0,0,.08.28.54.54,0,0,0,.08.19.54.54,0,0,1,0,.08s0,0-.1,0l-.19-.08-.16-.09-.13-.12a.53.53,0,0,1-.09-.11l0-.06H45.9l0,0-.07.09-.1.11a.67.67,0,0,1-.14.09l-.12.07-.13.05-.1,0h0a.39.39,0,0,1,0-.06.67.67,0,0,0,.06-.12,1.77,1.77,0,0,0,.08-.22c0-.09,0-.17,0-.24a.49.49,0,0,1,0-.13S45.45,21,45.47,21Zm1.75.71c.82,0,1.23,0,1.23,0l-.08.08-.5.44-.44.41a.07.07,0,0,0,0,0s.29,0,.86,0h.86v.18H47.39v.46a2.29,2.29,0,0,1,0,.53l-.06.1a.35.35,0,0,1-.11.1.65.65,0,0,1-.16.09l-.15.07-.17,0-.14,0s0,0,0,0,0-.05.09-.07l.14-.1.11-.12a.35.35,0,0,0,.06-.14,2.66,2.66,0,0,0,0-.52v-.44H45.43v-.18h1.51l.38-.39.4-.39H46v-.19ZM45.8,20h0l.13.06.23.13.21.18a.65.65,0,0,1,.15.18.41.41,0,0,1,.08.14l0,.08s0,0,0,0l-.19.09-.23.09s0,0,0,0a.72.72,0,0,0,0-.13c0-.05,0-.11-.05-.18a1.16,1.16,0,0,0-.06-.15.51.51,0,0,0-.07-.15l-.13-.19c0-.07-.08-.11-.07-.13Zm1,0s0,0,0,0L47,20l.22.13a1.19,1.19,0,0,1,.18.15.88.88,0,0,1,.14.15.38.38,0,0,1,.09.15l.05.12v0l-.23.1-.22.1v-.13c0-.08,0-.15,0-.21a.7.7,0,0,0-.06-.17L47,20.26l-.09-.14L46.86,20S46.82,20,46.82,20Zm1.34,0,.28,0a.9.9,0,0,1,.25.05s0,0,0,.06a.66.66,0,0,1-.06.12s-.06.11-.11.2a1.37,1.37,0,0,1-.19.22,1.41,1.41,0,0,1-.18.17l-.15.11a.94.94,0,0,1-.15.06c-.05,0-.08,0-.08,0l.07-.16c0-.09.08-.17.11-.26s.06-.15.1-.26.06-.19.08-.25l0-.1A0,0,0,0,1,48.16,19.92Z"/><path class="cls-6" d="M52.28,19.92h.21v1.15h1.78v.19H52.5v1.31c0,.87,0,1.32,0,1.36l-.06.12a.28.28,0,0,1-.09.1l-.09,0-.1,0h-.06v-3H50.29v-.19h1.78V19.92Zm-1,1.65h.2v1.55a1.23,1.23,0,0,1,0,.23.5.5,0,0,1,0,.13.43.43,0,0,1-.07.1.39.39,0,0,1-.1.08.28.28,0,0,1-.13,0h-.08V22.64c0-.7,0-1.05,0-1.06Zm2-.06h.22v.87c0,.58,0,.89,0,.94s0,.09-.05.12a.26.26,0,0,1-.07.11.24.24,0,0,1-.09.06l-.13,0h-.06V21.51ZM53.38,20h.21v.26a1.16,1.16,0,0,1,0,.33.35.35,0,0,1,0,.11l-.07.09a.39.39,0,0,1-.1.08l-.13,0h-.07V20Z"/><path class="cls-6" d="M56.15,20.13h.25a.67.67,0,0,1,0,.1,1.42,1.42,0,0,0-.06.21,1.59,1.59,0,0,1-.09.2l0,.1v1.44c0,.95,0,1.44,0,1.49l0,.12a.47.47,0,0,1-.09.12A.34.34,0,0,1,56,24l-.12,0h-.06v-2.7l0,0-.12.09-.18.1-.13.05s0,0,0,0l.08-.14c.06-.09.12-.18.17-.27s.1-.17.14-.24a1.65,1.65,0,0,0,.09-.22,1.36,1.36,0,0,0,.09-.23,1.15,1.15,0,0,0,.06-.21l0-.11S56,20.13,56.15,20.13Zm1.73,0h.22v.05a.44.44,0,0,1,0,.14,1.31,1.31,0,0,1,0,.15.41.41,0,0,1-.07.11s0,.05,0,.06h1.4v.19H56.46v-.19h1.21v-.51Zm0,1.22H59v.17H56.74v-.18Zm0,.64H59v.18H56.74V22Zm-.85.5h.22v.09h1.27v-.09H59V23c0,.22,0,.37,0,.44s0,.13,0,.16,0,.11-.07.17a.48.48,0,0,1-.09.13.22.22,0,0,1-.09.08l-.1,0h0v-.29H57.19l0,.08-.09.11A.31.31,0,0,1,57,24l-.09,0h-.05V22.49Zm.85.26a4.27,4.27,0,0,0-.63,0v.79h1.28v-.8Z"/><path class="cls-6" d="M60.64,22.68h.2v1l0,.09-.07.15a.44.44,0,0,1-.08.11l-.07.06-.1,0h-.07v-.7c0-.47,0-.7,0-.71Zm1.25-2.63h.22v.09c0,.07,0,.12,0,.17a.16.16,0,0,1,0,.08l.11,0h.48a2.11,2.11,0,0,0,.58,0s.07,0,.22,0h.21v1a9.18,9.18,0,0,1,0,1,.67.67,0,0,1-.06.12.22.22,0,0,1,0,.08l-.09.05a.21.21,0,0,1-.12,0h-.08V22.5h-1c-.65,0-1,0-1,0l0,0a.41.41,0,0,1-.11.07.27.27,0,0,1-.12,0h-.06V20.38h.2c.15,0,.22,0,.22,0s.06,0,.17,0h.17v-.37Zm-.37,2.63h.21v.4a2.65,2.65,0,0,1,0,.48.44.44,0,0,0,0,.09s0,0,0,0h1.21v-.6h.42v.25c0,.15,0,.26,0,.31a.64.64,0,0,1-.06.16.35.35,0,0,1-.07.12.22.22,0,0,1-.07.09A.27.27,0,0,1,63,24h-.07v-.17h-1.3l0,0-.06.07a.19.19,0,0,1-.07.06h-.16v-.66c0-.45,0-.68,0-.69Zm.76-.82h-.93V22c0,.1,0,.18,0,.22v.07h1.88v-.44Zm0-1.26h-.93v.45h1.86V20.6Zm0,.64h-.93v.43h1.86v-.43Zm0,1.44h.21v.19a.79.79,0,0,1,0,.26.84.84,0,0,1,0,.14.4.4,0,0,1-.07.12.2.2,0,0,1-.09.09.15.15,0,0,1-.11,0h-.08v-.42a2.86,2.86,0,0,1,0-.42Zm1.62,0h.2v.94l0,.1a1.16,1.16,0,0,1-.06.15L64,24a.3.3,0,0,1-.08.08.21.21,0,0,1-.12,0h-.07v-.7c0-.47,0-.7,0-.71Z"/><path class="cls-6" d="M66.83,20.1l.2,0,.17,0a3,3,0,0,1-.22.31,2.26,2.26,0,0,1-.27.33l-.06,0v1.47c0,1,0,1.48,0,1.52a.41.41,0,0,1-.05.09.28.28,0,0,1-.06.08l-.09.06a.28.28,0,0,1-.13,0h-.07V22.55c0-1,0-1.52,0-1.52l-.15.06-.32.09-.3.07-.21,0c-.06,0-.09,0-.09,0s0,0,0-.05a0,0,0,0,1,0,0l.2-.06.32-.11.3-.12.23-.14a1.57,1.57,0,0,0,.21-.17,2.55,2.55,0,0,0,.24-.3l.13-.17S66.81,20.1,66.83,20.1Zm1,0H68v1.57l.1-.11.16-.19.13-.18a1,1,0,0,0,.13-.2l.14-.26a1.85,1.85,0,0,0,.13-.29l.06-.13h.46s0,0,0,.09a1.27,1.27,0,0,1-.06.18c0,.08-.06.16-.1.25A1.49,1.49,0,0,1,69,21a1.57,1.57,0,0,1-.12.19l-.17.2c-.06.07-.14.14-.21.21l-.22.17a1.15,1.15,0,0,1-.19.14L68,22v1.51h1.09v-1h.37v.73a4,4,0,0,1,0,.73l-.08,0-.12-.07-.08-.09,0,0H68v.13c0,.07,0,.11,0,.11l-.06,0a.33.33,0,0,1-.13-.07.47.47,0,0,1-.1-.1.27.27,0,0,1,0-.13,4.15,4.15,0,0,1,0-.74c0-.45,0-.68,0-.68l-.12.05-.24.09c-.09,0-.13,0-.14,0s0,0,0-.07v-.05l.16-.08.26-.15.1-.06v-1.9Z"/><path class="cls-6" d="M72.28,20.16h1.27v.19H72.49v1.58H74v.19H72.49v.76a5.21,5.21,0,0,1,0,.83.54.54,0,0,1-.07.13.22.22,0,0,1-.1.09l-.15,0h-.07V22.13H70.59v-.19h1.48V20.36H71v-.19Zm-.93.65h.2V21a1.86,1.86,0,0,1,0,.27.43.43,0,0,1-.05.12.25.25,0,0,1-.08.1.26.26,0,0,1-.11.07l-.11,0h-.06V21.2c0-.26,0-.39,0-.39Zm2,0h.21V21c0,.12,0,.2,0,.25l0,.14-.07.1a.38.38,0,0,1-.12.09.32.32,0,0,1-.14,0h0v-.77Z"/><path class="cls-6" d="M77.33,20c.19,0,.29,0,.29,0a.39.39,0,0,1,0,.06l-.1.14-.16.21-.17.18a2.08,2.08,0,0,1-.21.21l-.23.19a2.48,2.48,0,0,1-.24.18l-.31.2-.25.16c-.05,0-.08,0-.08.05H77.1c.84,0,1.26,0,1.26,0a.55.55,0,0,0-.07-.13l-.14-.18L78,21.09c-.06-.07-.09-.12-.08-.16a.21.21,0,0,0,0-.06l.07,0,.15.08.17.12.17.13a1.57,1.57,0,0,1,.18.19,1,1,0,0,1,.15.18l.09.14.06.14A.2.2,0,0,1,79,22h-.48l0-.08a.56.56,0,0,0,0-.08s-.5,0-1.47,0H75.55v-.09c0-.06,0-.1,0-.11l.17-.14.27-.21.25-.24.25-.26.2-.22.16-.22L77,20.1l.06-.1Zm-1.25,2.19h.21v.11h1.84v-.1h.41v.74c0,.49,0,.76,0,.81a.4.4,0,0,1-.07.13.3.3,0,0,1-.09.1.31.31,0,0,1-.1.05h-.14v-.18H76.27l0,.09a.34.34,0,0,1-.1.13.3.3,0,0,1-.11.06h-.15V22.21A.58.58,0,0,1,76.08,22.19Zm1.14.31h-.93v1.18h1.84V22.5Z"/></g></g></g></svg>